<svg width="442" height="50" viewBox="0 0 442 50" fill="none" xmlns="http://www.w3.org/2000/svg">
<path d="M35 8.33374C36.2754 8.33367 37.5025 8.82095 38.4304 9.69588C39.3583 10.5708 39.9168 11.7673 39.9917 13.0404L40 13.3337V36.6671C40.0001 37.9424 39.5128 39.1696 38.6379 40.0975C37.7629 41.0254 36.5665 41.5839 35.2933 41.6587L35 41.6671H15C13.7246 41.6671 12.4975 41.1799 11.5696 40.3049C10.6417 39.43 10.0832 38.2336 10.0083 36.9604L10 36.6671V13.3337C9.99993 12.0584 10.4872 10.8312 11.3621 9.90331C12.2371 8.9754 13.4335 8.41689 14.7067 8.34207L15 8.33374H35ZM30 33.3337H20L19.805 33.3454C19.3999 33.3936 19.0266 33.5887 18.7557 33.8937C18.4848 34.1987 18.3352 34.5925 18.3352 35.0004C18.3352 35.4083 18.4848 35.8021 18.7557 36.1071C19.0266 36.4122 19.3999 36.6072 19.805 36.6554L20 36.6671H30L30.195 36.6554C30.6001 36.6072 30.9734 36.4122 31.2443 36.1071C31.5152 35.8021 31.6648 35.4083 31.6648 35.0004C31.6648 34.5925 31.5152 34.1987 31.2443 33.8937C30.9734 33.5887 30.6001 33.3936 30.195 33.3454L30 33.3337Z" stroke="#0E3B65" stroke-width="2" stroke-linecap="round" stroke-linejoin="round"/>
<g clip-path="url(#clip0_99_485)">
<path d="M53.3333 11.6663H60L65 16.6663H76.6667C77.5507 16.6663 78.3986 17.0174 79.0237 17.6426C79.6488 18.2677 80 19.1155 80 19.9996V33.3329C80 34.217 79.6488 35.0648 79.0237 35.6899C78.3986 36.3151 77.5507 36.6663 76.6667 36.6663H53.3333C52.4493 36.6663 51.6014 36.3151 50.9763 35.6899C50.3512 35.0648 50 34.217 50 33.3329V14.9996C50 14.1155 50.3512 13.2677 50.9763 12.6426C51.6014 12.0174 52.4493 11.6663 53.3333 11.6663Z" stroke="#0E3B65" stroke-width="2" stroke-linecap="round" stroke-linejoin="round"/>
</g>
<g clip-path="url(#clip1_99_485)">
<path d="M108.333 10V16.6667C108.333 17.1087 108.509 17.5326 108.822 17.8452C109.134 18.1577 109.558 18.3333 110 18.3333H116.667" stroke="#0E3B65" stroke-width="2" stroke-linecap="round" stroke-linejoin="round"/>
<path d="M113.333 40H96.6668C95.7828 40 94.9349 39.6488 94.3098 39.0237C93.6847 38.3986 93.3335 37.5507 93.3335 36.6667V13.3333C93.3335 12.4493 93.6847 11.6014 94.3098 10.9763C94.9349 10.3512 95.7828 10 96.6668 10H108.333L116.667 18.3333V36.6667C116.667 37.5507 116.316 38.3986 115.691 39.0237C115.065 39.6488 114.218 40 113.333 40Z" stroke="#0E3B65" stroke-width="2" stroke-linecap="round" stroke-linejoin="round"/>
<path d="M101.667 35L110 26.6667C110.442 26.2246 110.691 25.6251 110.691 25C110.691 24.3749 110.442 23.7754 110 23.3333C109.558 22.8913 108.959 22.643 108.333 22.643C107.708 22.643 107.109 22.8913 106.667 23.3333L98.3335 31.6667V35H101.667Z" stroke="#0E3B65" stroke-width="2" stroke-linecap="round" stroke-linejoin="round"/>
</g>
<g clip-path="url(#clip2_99_485)">
<path d="M140 13.3337C140 12.0077 140.527 10.7359 141.464 9.79821C142.402 8.86052 143.674 8.33374 145 8.33374C146.326 8.33374 147.598 8.86052 148.536 9.79821C149.473 10.7359 150 12.0077 150 13.3337V21.6671C150 22.9932 149.473 24.2649 148.536 25.2026C147.598 26.1403 146.326 26.6671 145 26.6671C143.674 26.6671 142.402 26.1403 141.464 25.2026C140.527 24.2649 140 22.9932 140 21.6671V13.3337Z" stroke="#0E3B65" stroke-width="2" stroke-linecap="round" stroke-linejoin="round"/>
<path d="M133.333 21.6663C133.333 24.7605 134.562 27.7279 136.75 29.9158C138.938 32.1038 141.905 33.3329 145 33.3329C148.094 33.3329 151.061 32.1038 153.249 29.9158C155.437 27.7279 156.666 24.7605 156.666 21.6663" stroke="#0E3B65" stroke-width="2" stroke-linecap="round" stroke-linejoin="round"/>
<path d="M138.333 40H151.667" stroke="#0E3B65" stroke-width="2" stroke-linecap="round" stroke-linejoin="round"/>
<path d="M145 33.3337V40.0004" stroke="#0E3B65" stroke-width="2" stroke-linecap="round" stroke-linejoin="round"/>
</g>
<g clip-path="url(#clip3_99_485)">
<path d="M315 18.3337C316.326 18.3337 317.598 18.8605 318.536 19.7982C319.473 20.7359 320 22.0077 320 23.3337C320 24.6598 319.473 25.9316 318.536 26.8693C317.598 27.807 316.326 28.3337 315 28.3337" stroke="#0E3B65" stroke-width="2" stroke-linecap="round" stroke-linejoin="round"/>
<path d="M301.667 18.3337V36.6671C301.667 37.1091 301.491 37.533 301.179 37.8456C300.866 38.1581 300.442 38.3337 300 38.3337H298.334C297.892 38.3337 297.468 38.1581 297.155 37.8456C296.843 37.533 296.667 37.1091 296.667 36.6671V28.3337" stroke="#0E3B65" stroke-width="2" stroke-linecap="round" stroke-linejoin="round"/>
<path d="M305 18.3337L312.54 12.0503C312.759 11.8678 313.026 11.7516 313.308 11.7152C313.591 11.6788 313.879 11.7237 314.137 11.8447C314.395 11.9658 314.613 12.1579 314.766 12.3986C314.919 12.6392 315 12.9185 315 13.2037V33.4637C315 33.7488 314.919 34.0281 314.766 34.2687C314.613 34.5094 314.395 34.7015 314.137 34.8226C313.879 34.9436 313.591 34.9886 313.308 34.9521C313.026 34.9157 312.759 34.7995 312.54 34.617L305 28.3337H291.667C291.225 28.3337 290.801 28.1581 290.488 27.8455C290.176 27.5329 290 27.109 290 26.667V20.0003C290 19.5583 290.176 19.1344 290.488 18.8218C290.801 18.5092 291.225 18.3337 291.667 18.3337H305Z" stroke="#0E3B65" stroke-width="2" stroke-linecap="round" stroke-linejoin="round"/>
</g>
<g clip-path="url(#clip4_99_485)">
<path d="M250 40H280" stroke="#0E3B65" stroke-width="2" stroke-linecap="round" stroke-linejoin="round"/>
<path d="M253.333 40V13.3333C253.333 12.4493 253.685 11.6014 254.31 10.9763C254.935 10.3512 255.783 10 256.667 10H273.333C274.218 10 275.065 10.3512 275.691 10.9763C276.316 11.6014 276.667 12.4493 276.667 13.3333V40" stroke="#0E3B65" stroke-width="2" stroke-linecap="round" stroke-linejoin="round"/>
<path d="M260 40V33.3333C260 32.4493 260.351 31.6014 260.976 30.9763C261.601 30.3512 262.449 30 263.333 30H266.667C267.551 30 268.399 30.3512 269.024 30.9763C269.649 31.6014 270 32.4493 270 33.3333V40" stroke="#0E3B65" stroke-width="2" stroke-linecap="round" stroke-linejoin="round"/>
<path d="M261.667 20H268.333" stroke="#0E3B65" stroke-width="2" stroke-linecap="round" stroke-linejoin="round"/>
<path d="M265 16.6663V23.3329" stroke="#0E3B65" stroke-width="2" stroke-linecap="round" stroke-linejoin="round"/>
</g>
<g clip-path="url(#clip5_99_485)">
<path d="M215 11.6663H213.333C212.449 11.6663 211.601 12.0174 210.976 12.6426C210.351 13.2677 210 14.1155 210 14.9996V20.8329C210 23.2641 210.966 25.5957 212.685 27.3147C214.404 29.0338 216.736 29.9996 219.167 29.9996C221.598 29.9996 223.929 29.0338 225.648 27.3147C227.368 25.5957 228.333 23.2641 228.333 20.8329V14.9996C228.333 14.1155 227.982 13.2677 227.357 12.6426C226.732 12.0174 225.884 11.6663 225 11.6663H223.333" stroke="#0E3B65" stroke-width="2" stroke-linecap="round" stroke-linejoin="round"/>
<path d="M218.333 30C218.333 31.3132 218.592 32.6136 219.095 33.8268C219.597 35.0401 220.334 36.1425 221.262 37.0711C222.191 37.9997 223.293 38.7362 224.507 39.2388C225.72 39.7413 227.02 40 228.333 40C229.647 40 230.947 39.7413 232.16 39.2388C233.374 38.7362 234.476 37.9997 235.405 37.0711C236.333 36.1425 237.07 35.0401 237.572 33.8268C238.075 32.6136 238.333 31.3132 238.333 30V25" stroke="#0E3B65" stroke-width="2" stroke-linecap="round" stroke-linejoin="round"/>
<path d="M223.333 10V13.3333" stroke="#0E3B65" stroke-width="2" stroke-linecap="round" stroke-linejoin="round"/>
<path d="M215 10V13.3333" stroke="#0E3B65" stroke-width="2" stroke-linecap="round" stroke-linejoin="round"/>
<path d="M235 21.6671C235 22.5511 235.351 23.399 235.976 24.0241C236.601 24.6492 237.449 25.0004 238.333 25.0004C239.217 25.0004 240.065 24.6492 240.69 24.0241C241.315 23.399 241.667 22.5511 241.667 21.6671C241.667 20.783 241.315 19.9352 240.69 19.3101C240.065 18.6849 239.217 18.3337 238.333 18.3337C237.449 18.3337 236.601 18.6849 235.976 19.3101C235.351 19.9352 235 20.783 235 21.6671Z" stroke="#0E3B65" stroke-width="2" stroke-linecap="round" stroke-linejoin="round"/>
</g>
<g clip-path="url(#clip6_99_485)">
<path d="M173.333 40V13.3333C173.333 12.4493 173.685 11.6014 174.31 10.9763C174.935 10.3512 175.783 10 176.667 10H193.333C194.218 10 195.065 10.3512 195.691 10.9763C196.316 11.6014 196.667 12.4493 196.667 13.3333V40L191.667 36.6667L188.333 40L185 36.6667L181.667 40L178.333 36.6667L173.333 40Z" stroke="#0E3B65" stroke-width="2" stroke-linecap="round" stroke-linejoin="round"/>
<path d="M189.667 18.3333C189.365 17.8096 188.926 17.3778 188.398 17.0843C187.869 16.7907 187.271 16.6463 186.667 16.6667H183.333C182.449 16.6667 181.601 17.0179 180.976 17.643C180.351 18.2681 180 19.1159 180 20C180 20.8841 180.351 21.7319 180.976 22.357C181.601 22.9821 182.449 23.3333 183.333 23.3333H186.667C187.551 23.3333 188.399 23.6845 189.024 24.3096C189.649 24.9348 190 25.7826 190 26.6667C190 27.5507 189.649 28.3986 189.024 29.0237C188.399 29.6488 187.551 30 186.667 30H183.333C182.729 30.0203 182.131 29.876 181.602 29.5824C181.074 29.2888 180.635 28.8571 180.333 28.3333" stroke="#0E3B65" stroke-width="2" stroke-linecap="round" stroke-linejoin="round"/>
<path d="M185 15V31.6667" stroke="#0E3B65" stroke-width="2" stroke-linecap="round" stroke-linejoin="round"/>
</g>
<g clip-path="url(#clip7_99_485)">
<path d="M330.333 13C330.333 14.0609 331.457 15.0783 333.458 15.8284C335.458 16.5786 338.171 17 341 17C343.829 17 346.542 16.5786 348.543 15.8284C350.543 15.0783 351.667 14.0609 351.667 13C351.667 11.9391 350.543 10.9217 348.543 10.1716C346.542 9.42143 343.829 9 341 9C338.171 9 335.458 9.42143 333.458 10.1716C331.457 10.9217 330.333 11.9391 330.333 13Z" stroke="#F5F5F5" stroke-width="2" stroke-linecap="round" stroke-linejoin="round"/>
<path d="M330.333 13V21C330.333 22.0609 331.457 23.0783 333.458 23.8284C335.458 24.5786 338.171 25 341 25C343.829 25 346.542 24.5786 348.543 23.8284C350.543 23.0783 351.667 22.0609 351.667 21V13" stroke="#F5F5F5" stroke-width="2" stroke-linecap="round" stroke-linejoin="round"/>
<path d="M330.333 21V29C330.333 30.0609 331.457 31.0783 333.458 31.8284C335.458 32.5786 338.171 33 341 33C343.829 33 346.542 32.5786 348.543 31.8284C350.543 31.0783 351.667 30.0609 351.667 29V21" stroke="#F5F5F5" stroke-width="2" stroke-linecap="round" stroke-linejoin="round"/>
</g>
<g clip-path="url(#clip8_99_485)">
<path d="M383.667 9V14.3333C383.667 14.687 383.807 15.0261 384.057 15.2761C384.307 15.5262 384.646 15.6667 385 15.6667H390.333" stroke="#0E3B65" stroke-width="2" stroke-linecap="round" stroke-linejoin="round"/>
<path d="M387.667 33H374.333C373.626 33 372.948 32.719 372.448 32.219C371.947 31.7189 371.667 31.0406 371.667 30.3333V11.6667C371.667 10.9594 371.947 10.2811 372.448 9.78105C372.948 9.28095 373.626 9 374.333 9H383.667L390.333 15.6667V30.3333C390.333 31.0406 390.052 31.7189 389.552 32.219C389.052 32.719 388.374 33 387.667 33Z" stroke="#0E3B65" stroke-width="2" stroke-linecap="round" stroke-linejoin="round"/>
<path d="M377 27.6667V21" stroke="#0E3B65" stroke-width="2" stroke-linecap="round" stroke-linejoin="round"/>
<path d="M381 27.6667V26.3333" stroke="#0E3B65" stroke-width="2" stroke-linecap="round" stroke-linejoin="round"/>
<path d="M385 27.6667V23.6667" stroke="#0E3B65" stroke-width="2" stroke-linecap="round" stroke-linejoin="round"/>
</g>
<g clip-path="url(#clip9_99_485)">
<path d="M411.667 33V11.6667C411.667 10.9594 411.947 10.2811 412.448 9.78105C412.948 9.28095 413.626 9 414.333 9H427.667C428.374 9 429.052 9.28095 429.552 9.78105C430.052 10.2811 430.333 10.9594 430.333 11.6667V33L426.333 30.3333L423.667 33L421 30.3333L418.333 33L415.667 30.3333L411.667 33Z" stroke="white" stroke-width="2" stroke-linecap="round" stroke-linejoin="round"/>
<path d="M423.667 15.6667H420.333C419.803 15.6667 419.294 15.8774 418.919 16.2525C418.544 16.6275 418.333 17.1362 418.333 17.6667C418.333 18.1971 418.544 18.7058 418.919 19.0809C419.294 19.456 419.803 19.6667 420.333 19.6667H421.667C422.197 19.6667 422.706 19.8774 423.081 20.2525C423.456 20.6275 423.667 21.1362 423.667 21.6667C423.667 22.1971 423.456 22.7058 423.081 23.0809C422.706 23.456 422.197 23.6667 421.667 23.6667H418.333M421 23.6667V25.6667M421 13.6667V15.6667" stroke="white" stroke-width="2" stroke-linecap="round" stroke-linejoin="round"/>
</g>
<defs>
<clipPath id="clip0_99_485">
<rect width="40" height="40" fill="white" transform="translate(45 5)"/>
</clipPath>
<clipPath id="clip1_99_485">
<rect width="40" height="40" fill="white" transform="translate(85 5)"/>
</clipPath>
<clipPath id="clip2_99_485">
<rect width="40" height="40" fill="white" transform="translate(125 5)"/>
</clipPath>
<clipPath id="clip3_99_485">
<rect width="40" height="40" fill="white" transform="translate(285 5)"/>
</clipPath>
<clipPath id="clip4_99_485">
<rect width="40" height="40" fill="white" transform="translate(245 5)"/>
</clipPath>
<clipPath id="clip5_99_485">
<rect width="40" height="40" fill="white" transform="translate(205 5)"/>
</clipPath>
<clipPath id="clip6_99_485">
<rect width="40" height="40" fill="white" transform="translate(165 5)"/>
</clipPath>
<clipPath id="clip7_99_485">
<rect width="32" height="32" fill="white" transform="translate(325 5)"/>
</clipPath>
<clipPath id="clip8_99_485">
<rect width="32" height="32" fill="white" transform="translate(365 5)"/>
</clipPath>
<clipPath id="clip9_99_485">
<rect width="32" height="32" fill="white" transform="translate(405 5)"/>
</clipPath>
</defs>
</svg>
